<?xml version="1.0" encoding="UTF-8"?>
<svg id="Layer_1" data-name="Layer 1" xmlns="http://www.w3.org/2000/svg" viewBox="0 0 295 443">
  <path d="M287.53,122.11c0,1.31-.03,2.6-.09,3.9-.05,1.19-.13,2.38-.24,3.56-.03.12-.07.25-.11.37-.46,1.41-1.27,2.79-2.41,4.14-12.5,13.18-69.16,23.13-137.18,23.13s-124.68-9.95-137.18-23.13c-1.14-1.35-1.96-2.74-2.41-4.14-.04-.12-.08-.25-.11-.37-.11-1.18-.19-2.37-.24-3.56-.06-1.29-.09-2.59-.09-3.9,0-41.04,12.63-82.92,71.92-100.76.04-.01.09-.03.13-.04,7.06-2.12,14.79-3.9,23.23-5.29,3.11-.51,6.31-.97,9.62-1.38,1.85-.23,3.73-.44,5.64-.63,1.3-.13,2.62-.26,3.95-.37,1.14-.1,2.3-.19,3.47-.28,4.33-.32,8.82-.57,13.47-.72,1.25-.04,2.52-.08,3.8-.11h.05c1.52-.03,3.06-.06,4.62-.07h.3c1.56.02,3.1.04,4.62.07h.05c1.28.03,2.54.06,3.8.11,4.65.15,9.13.4,13.47.72,1.17.09,2.32.18,3.47.28,1.33.12,2.65.24,3.95.37,1.91.19,3.79.41,5.64.63,3.31.41,6.51.87,9.62,1.38,8.44,1.4,16.17,3.17,23.23,5.29.04.01.09.03.13.04,59.29,17.84,71.92,59.72,71.92,100.76h-.04Z" fill="#a1cd22"/>
  <path d="M138.89,12.63c-1.94.06-3.86.15-5.74.24-4.55,1.91-57.79,20.62-62.81,99.02l3.18.38c-.35,1.62,4.72-5.39,4.4-3.77-1.78,8.91-3.21,17.84-4.4,26.78l30.35,1.94c-.03-8.41.16-16.8.68-25.13.5-8.34,1.39-16.6,2.72-24.76s3.12-16.21,5.49-24.09c.27-1,.61-1.96.93-2.94l.96-2.93c.15-.49.33-.97.51-1.45l.53-1.45,1.07-2.9,1.17-2.86.59-1.43c.2-.48.38-.96.6-1.43l1.28-2.81c.43-.94.85-1.89,1.32-2.81,3.63-7.43,7.89-14.62,12.71-21.51,1.44-2.06,2.92-4.09,4.45-6.1h.01Z" fill="#7aaf16"/>
  <path d="M147.5,12.45v115.98c-8.09.94-16.19.81-17.23-3.23-12.07-46.97,12.46-112.69,12.46-112.69,1.52-.03,3.06-.06,4.62-.07h.15Z" fill="#7aaf16"/>
  <path d="M56.13,132.87c-.06-.3-.09-.61-.12-.91l-.1-.91-.43-3.66-.05-.46-.03-.46-.06-.91-.13-1.83-.14-1.84-.03-.46c0-.15,0-.31,0-.46l-.03-.91-.06-2.08-7.2-2.02s-1.23-70.6,69.51-101.83c-3.95.48-10.72,1.29-12.8,1.62-22.47,7.53-84.36,23.51-83.21,104.13l5.23-.53-.1,1.13c-.01.19-.03.38-.05.56l-.03.56-.1,2.25-.1,2.25-.05,1.13-.02.56v.56l-.02,4.5v1.13c0,.38,0,.75.01,1.12l.09,2.24.18,4.49,30.72-3.48-.57-3.65-.29-1.83h-.01Z" fill="#7aaf16"/>
  <path d="M156.11,12.63c1.94.06,3.86.15,5.74.24,4.55,1.91,57.79,20.62,62.81,99.02l-3.18.38c.35,1.62-4.72-5.39-4.4-3.77,1.78,8.91,3.21,17.84,4.4,26.78l-30.35,1.94c.03-8.41-.16-16.8-.68-25.13-.5-8.34-1.39-16.6-2.72-24.76s-3.12-16.21-5.49-24.09c-.27-1-.61-1.96-.93-2.94l-.96-2.93c-.15-.49-.33-.97-.51-1.45l-.53-1.45-1.07-2.9-1.17-2.86-.59-1.43c-.2-.48-.38-.96-.6-1.43l-1.28-2.81c-.43-.94-.85-1.89-1.32-2.81-3.63-7.43-7.89-14.62-12.71-21.51-1.44-2.06-2.92-4.09-4.45-6.1h0Z" fill="#7aaf16"/>
  <path d="M147.5,12.45v115.98c8.09.94,16.19.81,17.23-3.23,12.07-46.97-12.46-112.69-12.46-112.69-1.52-.03-3.06-.06-4.62-.07h-.15Z" fill="#7aaf16"/>
  <path d="M238.87,132.87c.06-.3.09-.61.12-.91l.1-.91.43-3.66.05-.46.03-.46.06-.91.13-1.83.14-1.84.03-.46c0-.15,0-.31,0-.46l.03-.91.06-2.08,7.2-2.02s1.23-70.6-69.51-101.83c3.95.48,10.72,1.29,12.8,1.62,22.47,7.53,84.36,23.51,83.21,104.13l-5.23-.53.1,1.13c.01.19.03.38.05.56l.03.56.1,2.25.1,2.25.05,1.13.02.56v.56l.02,4.5v1.13c0,.38,0,.75-.01,1.12l-.09,2.24-.18,4.49-30.72-3.48.57-3.65.29-1.83h.01Z" fill="#7aaf16"/>
  <path d="M287.24,128.58c0,.45-.05.9-.15,1.35-.04.2-.1.4-.17.6-.17.53-.42,1.05-.72,1.57-.4.66-.91,1.32-1.52,1.97-1.15,1.21-2.67,2.4-4.54,3.55-8.41,5.18-23.87,9.71-44.04,13.1-.91.15-1.83.3-2.76.45-9.55,1.53-20.09,2.8-31.39,3.78-.83.07-1.67.14-2.52.21-8.82.72-18.09,1.27-27.69,1.61-.8.03-1.61.06-2.41.08-6.73.22-13.62.33-20.63.34h-2.39c-7.01,0-13.9-.13-20.63-.34-.81-.02-1.61-.05-2.41-.08-9.61-.34-18.87-.89-27.7-1.61-.84-.07-1.68-.14-2.51-.21-11.3-.98-21.84-2.25-31.39-3.78-.93-.15-1.85-.3-2.76-.45-20.17-3.39-35.63-7.92-44.04-13.09h0c-1.87-1.16-3.39-2.34-4.54-3.55-.61-.65-1.12-1.3-1.52-1.97h0c-.31-.52-.55-1.05-.73-1.58-.07-.2-.12-.4-.17-.6-.1-.44-.15-.89-.15-1.35,0-.34.03-.68.09-1.02.07-.4.18-.79.32-1.19.29-.78.74-1.56,1.33-2.32,4.21-5.42,15.87-10.34,32.77-14.3.78-.18,1.56-.36,2.36-.54,10.24-2.28,22.28-4.22,35.64-5.73.79-.09,1.59-.18,2.4-.27,4.57-.49,9.28-.93,14.13-1.32h.01c.68-.05,1.36-.11,2.05-.16.99-.07,1.98-.15,2.98-.22.59-.04,1.17-.08,1.76-.12.53-.04,1.07-.07,1.6-.11.39-.02.78-.05,1.17-.08,1.22-.08,2.44-.15,3.68-.22.54-.03,1.07-.06,1.61-.09,1.89-.1,3.8-.2,5.73-.28.79-.04,1.59-.07,2.39-.1h.17c.56-.02,1.11-.05,1.67-.07s1.12-.04,1.68-.06,1.13-.04,1.69-.06c.56-.02,1.13-.04,1.7-.05.41-.01.82-.02,1.23-.04.45-.01.9-.02,1.36-.04.28,0,.55-.01.83-.02.57-.02,1.14-.03,1.71-.04.27,0,.54-.01.81-.02.5-.01,1-.02,1.5-.03.39,0,.78-.01,1.17-.02.56,0,1.13-.02,1.69-.03.39,0,.78-.01,1.17-.01.34,0,.68-.01,1.03-.01.55,0,1.1-.01,1.65-.02,1.05,0,2.09-.02,3.14-.02h7.05c1.05,0,2.1.01,3.14.02.55,0,1.1,0,1.65.02.34,0,.68,0,1.03.01.39,0,.78,0,1.17.01.56,0,1.13.02,1.69.03.39,0,.78.01,1.17.02.5,0,1,.02,1.5.03.27,0,.54,0,.81.02.57.01,1.15.02,1.71.04.28,0,.55.01.83.02.45.01.9.02,1.36.04.41.01.82.02,1.23.04.57.02,1.13.04,1.7.05.56.02,1.13.04,1.69.06s1.12.04,1.68.06,1.12.04,1.67.07h.17c.8.03,1.6.06,2.39.1,1.92.09,3.83.18,5.72.28.54.03,1.08.06,1.61.09,1.23.07,2.46.14,3.68.22.39.02.78.05,1.17.08.53.03,1.07.07,1.6.11.59.04,1.18.08,1.76.12,1,.07,1.99.14,2.98.22.69.05,1.37.1,2.05.16h0c4.85.39,9.56.83,14.13,1.32.81.09,1.6.18,2.4.27,13.36,1.51,25.39,3.45,35.64,5.73.8.18,1.58.36,2.36.54,19.28,4.51,31.74,10.28,34.1,16.62.15.39.26.79.32,1.19.06.34.09.68.09,1.02h0Z" fill="#477723"/>
  <g opacity=".6">
    <path d="M287.15,127.57c-1.99-11.7-38.3-21.62-88.94-25.66h0c-.68-.06-1.36-.11-2.05-.16-.99-.08-1.98-.15-2.98-.22-.59-.04-1.17-.08-1.76-.12-.53-.04-1.06-.07-1.6-.11-.39-.03-.78-.05-1.17-.08-1.22-.08-2.44-.15-3.68-.22-.54-.03-1.07-.06-1.61-.09-2.73-.15-5.49-.28-8.28-.39-.56-.02-1.11-.05-1.67-.07s-1.12-.04-1.68-.06-1.13-.04-1.69-.06-1.13-.04-1.7-.06c-.41-.01-.82-.03-1.23-.04-.45-.01-.9-.03-1.35-.04l-.83-.02c-.57-.02-1.14-.03-1.71-.04-.27,0-.54-.01-.81-.02-.5-.01-1-.02-1.5-.03-.39,0-.78-.01-1.17-.02-.56-.01-1.13-.02-1.69-.03-.39,0-.78-.01-1.17-.02-.34,0-.68-.01-1.03-.01-.55,0-1.1-.01-1.65-.02-1.05,0-2.09-.02-3.14-.02h-7.06c-1.05,0-2.1.01-3.14.02-.55,0-1.1.01-1.65.02-.34,0-.68,0-1.03.01-.39,0-.78,0-1.17.02-.56,0-1.13.02-1.69.03-.39,0-.78.01-1.17.02-.5.01-1,.02-1.5.03-.27,0-.54.01-.81.02-.57.01-1.14.03-1.71.04-.28,0-.55.01-.83.02-.45.01-.9.03-1.35.04-.41.01-.82.03-1.23.04-.57.02-1.13.04-1.7.06-.56.02-1.13.04-1.69.06-.56.02-1.12.04-1.68.06s-1.12.04-1.67.07c-2.79.11-5.55.25-8.28.39-.54.03-1.08.06-1.61.09-1.23.07-2.46.14-3.68.22-.39.03-.78.05-1.17.08-.53.03-1.07.07-1.6.11-.59.04-1.18.08-1.76.12-1,.07-1.99.14-2.98.22-.69.05-1.37.1-2.05.16h-.01c-39.11,3.12-69.66,9.75-82.47,17.99,15.13-3.03,34.92-5.42,57.59-6.86h.01c.68-.04,1.36-.09,2.05-.13.99-.06,1.98-.12,2.98-.17.59-.03,1.17-.07,1.76-.1.53-.03,1.06-.06,1.6-.08.39-.02.78-.04,1.17-.06,1.22-.06,2.44-.12,3.68-.17.54-.03,1.07-.05,1.61-.07,2.73-.12,5.49-.22,8.28-.31.56-.02,1.11-.04,1.67-.05.56-.02,1.12-.03,1.68-.05.56-.02,1.13-.03,1.69-.05.56-.01,1.13-.03,1.7-.04.41,0,.82-.02,1.23-.03.45,0,.9-.02,1.35-.03.28,0,.55-.01.83-.02.57-.01,1.14-.02,1.71-.03.27,0,.54-.01.81-.01.5,0,1-.02,1.5-.03.39,0,.78-.01,1.17-.02.56,0,1.13-.02,1.69-.02.39,0,.78,0,1.17-.01.34,0,.68,0,1.03-.01.55,0,1.1-.01,1.65-.01,1.05,0,2.09-.01,3.14-.02h7.06c1.05,0,2.1.01,3.14.02.55,0,1.1,0,1.65.01.34,0,.68,0,1.03.01.39,0,.78,0,1.17.01.56,0,1.13.01,1.69.02.39,0,.78.01,1.17.02.5,0,1,.02,1.5.03.27,0,.54,0,.81.01.57,0,1.14.02,1.71.03.28,0,.55.01.83.02.45,0,.9.02,1.35.03.41,0,.82.02,1.23.03.57.01,1.13.03,1.7.04.56.01,1.13.03,1.69.05.56.02,1.12.03,1.68.05.56.02,1.12.04,1.67.05,2.79.09,5.55.2,8.28.31.54.03,1.08.05,1.61.07,1.23.06,2.46.11,3.68.17.39.02.78.04,1.17.06.53.03,1.07.06,1.6.08.59.03,1.18.06,1.76.1,1,.06,1.99.11,2.98.17.69.04,1.37.08,2.05.13h0c50.64,3.23,86.95,11.15,88.94,20.5.06.27.09.54.09.81,0,.36-.05.72-.15,1.07-.04.16-.1.32-.17.48-.39.96-1.15,1.91-2.25,2.83-11.68,9.84-61.97,17.43-124.04,18.38,3.87.07,7.79.1,11.74.1,68.01,0,124.68-9.95,137.18-23.13,1.1-1.16,1.85-2.34,2.25-3.54.07-.2.12-.4.17-.6.1-.44.15-.89.15-1.35,0-.34-.03-.68-.09-1.02h0Z" fill="#35573e"/>
  </g>
  <path d="M124.43,321.56l-2.06,1.2L8.8,132.11h0c-.31-.52-.55-1.05-.73-1.58-.07-.2-.12-.4-.17-.6-.1-.44-.15-.89-.15-1.35,0-.34.03-.68.09-1.02.07-.4.18-.79.32-1.19l2.46,4.13,4.23,7.11h0l109.57,183.94h.01Z" fill="#facc00"/>
  <path d="M130.95,321.75l-2.22.88-.19-.45L58.9,150.72l-16.64-40.96c.78-.18,1.56-.36,2.36-.54l17.04,41.95,69.29,170.59h0Z" fill="#facc00"/>
  <path d="M137.03,321.93l-2.32.56-.12-.48-41.54-167.07-12.79-51.46c.79-.09,1.59-.18,2.4-.27l12.91,51.94,41.46,166.77h0Z" fill="#facc00"/>
  <path d="M143.05,322.11l-2.38.24-17.4-165.57-5.9-56.14c.79-.04,1.59-.07,2.39-.1l5.92,56.32,17.37,165.25h0Z" fill="#facc00"/>
  <path d="M287.24,128.58c0,.45-.05.9-.15,1.35-.04.2-.1.4-.17.6-.17.53-.42,1.05-.72,1.57l-113.57,190.66-2.06-1.2.26-.43,109.31-183.51,6.7-11.24c.15.39.26.79.32,1.19.06.34.09.68.09,1.02h0Z" fill="#facc00"/>
  <path d="M252.74,109.76l-16.64,40.96-69.83,171.92-2.22-.88.19-.46,69.1-170.12,17.04-41.95c.8.18,1.58.36,2.36.54h0Z" fill="#facc00"/>
  <path d="M214.74,103.49l-12.79,51.46-41.66,167.55-2.32-.56,41.46-166.77,12.91-51.94c.81.09,1.6.18,2.4.27h0Z" fill="#facc00"/>
  <path d="M177.63,100.63l-5.9,56.14-17.4,165.57-2.38-.24.05-.49,17.32-164.76,5.92-56.32c.8.03,1.6.06,2.39.1h0Z" fill="#facc00"/>
  <rect x="146.31" y="99.97" width="2.39" height="222.26" fill="#facc00"/>
  <g opacity=".46">
    <path d="M34.59,96.72c-.24,0-.47-.01-.71-.04-3.22-.39-5.52-3.32-5.13-6.54.06-.52,1.65-12.86,11.08-26.67,5.5-8.04,12.55-14.98,20.96-20.62,10.38-6.97,22.84-11.97,37.05-14.85,3.18-.65,6.28,1.41,6.93,4.59.65,3.18-1.41,6.28-4.59,6.93-22.91,4.65-39.95,14.94-50.65,30.59-7.71,11.28-9.11,21.35-9.12,21.45-.36,2.98-2.9,5.17-5.82,5.17h0Z" fill="#fff"/>
  </g>
  <polygon points="71.2 356.41 71.2 338.18 223.83 338.18 223.83 354.22 217.78 372.65 106.51 388.46 71.2 356.41" fill="#f99f00"/>
  <path d="M214.68,317.95c-2.77-5.13-6.12-9.91-9.95-14.24-2.76-3.12-5.77-6.02-9-8.65-.42-.35-.85-.69-1.28-1.02-5.77-4.51-12.2-8.2-19.13-10.91-7.97-3.13-16.61-4.94-25.63-5.2-.73-.02-1.45-.03-2.19-.03-42.16,0-76.33,34.17-76.33,76.33,0,.73,0,1.46.03,2.19.25,9.02,2.07,17.65,5.2,25.63,2.71,6.93,6.4,13.36,10.91,19.13.34.43.68.85,1.02,1.28,2.64,3.23,5.53,6.24,8.65,9,4.34,3.83,9.11,7.18,14.24,9.95,10.79,5.84,23.14,9.16,36.27,9.16,42.16,0,76.33-34.17,76.33-76.33,0-13.13-3.32-25.49-9.16-36.27l.02-.02ZM147.5,415.09c-8.8,0-17.17-1.87-24.72-5.23-5.4-2.4-10.39-5.57-14.82-9.37-3.17-2.71-6.06-5.74-8.61-9.04-4.91-6.34-8.59-13.68-10.69-21.66-1.31-4.97-2.01-10.18-2.01-15.56,0-33.62,27.25-60.86,60.86-60.86,5.38,0,10.59.7,15.56,2.01,7.97,2.1,15.31,5.78,21.65,10.69,3.3,2.56,6.34,5.44,9.04,8.61,3.8,4.43,6.96,9.42,9.37,14.82,3.36,7.56,5.23,15.92,5.23,24.73,0,33.61-27.25,60.86-60.86,60.86h0Z" fill="#f99f00"/>
  <path d="M214.68,304.48c-2.77-5.13-6.12-9.91-9.95-14.24-2.76-3.12-5.77-6.02-9-8.65-.42-.35-.85-.69-1.28-1.02-5.77-4.51-12.2-8.2-19.13-10.91-7.97-3.13-16.61-4.94-25.63-5.2-.73-.02-1.45-.03-2.19-.03-42.16,0-76.33,34.17-76.33,76.33,0,.73,0,1.46.03,2.18.25,9.02,2.07,17.65,5.2,25.63,2.71,6.93,6.4,13.36,10.91,19.13.34.43.68.85,1.02,1.28,2.64,3.23,5.53,6.24,8.65,9,4.34,3.83,9.11,7.18,14.24,9.95,10.79,5.84,23.14,9.16,36.27,9.16,42.16,0,76.33-34.17,76.33-76.33,0-13.13-3.32-25.49-9.16-36.27h.02ZM147.5,401.62c-8.8,0-17.17-1.87-24.72-5.23-5.4-2.4-10.39-5.57-14.82-9.37-3.17-2.71-6.06-5.74-8.61-9.04-4.91-6.34-8.59-13.68-10.69-21.66-1.31-4.97-2.01-10.18-2.01-15.56,0-33.62,27.25-60.86,60.86-60.86,5.38,0,10.59.7,15.56,2.01,7.97,2.1,15.31,5.78,21.65,10.69,3.3,2.56,6.34,5.44,9.04,8.61,3.8,4.43,6.96,9.42,9.37,14.82,3.36,7.56,5.23,15.92,5.23,24.73,0,33.61-27.25,60.86-60.86,60.86h0Z" fill="#facc00"/>
  <circle cx="147.5" cy="340.76" r="60.86" fill="#f99f00"/>
  <path d="M147.5,288.49c32.17,0,58.5,24.96,60.71,56.56.1-1.42.15-2.85.15-4.3,0-33.61-27.25-60.86-60.86-60.86s-60.86,27.25-60.86,60.86c0,1.45.05,2.88.15,4.3,2.21-31.61,28.54-56.56,60.71-56.56h0Z" fill="#f78100"/>
  <path d="M96.99,397.98c2.16,1.91,4.43,3.7,6.8,5.35l11.15-11.15c-2.45-1.56-4.79-3.28-6.98-5.17l-10.97,10.97Z" fill="#ffe885"/>
  <path d="M204.73,290.24l-10.97,10.97c1.88,2.2,3.61,4.53,5.17,6.98l11.15-11.15c-1.65-2.37-3.44-4.64-5.35-6.8h0Z" fill="#ffe885"/>
  <path d="M88.65,356.32l-12.25,12.25c2.71,6.93,6.4,13.36,10.91,19.13.34.43.68.85,1.02,1.28l11.01-11.01c-4.91-6.34-8.59-13.68-10.69-21.66h0Z" fill="#ffe885"/>
  <path d="M194.45,280.56c-5.77-4.51-12.2-8.2-19.13-10.91l-12.25,12.25c7.97,2.1,15.31,5.78,21.65,10.69l11.01-11.01c-.42-.35-.85-.69-1.28-1.02h0Z" fill="#ffe885"/>
  <polygon points="150.47 400.17 152.86 400.17 170.47 376.95 171.65 365.58 193.48 344.42 151.65 292.67 110.12 344.42 131.77 364.69 132.81 376.8 150.47 400.17" fill="#f78100"/>
  <polygon points="146.31 398.8 148.7 398.8 166.31 375.58 167.49 364.21 189.32 343.05 147.49 291.3 105.97 343.05 127.61 363.32 128.65 375.43 146.31 398.8" fill="#ffce00"/>
  <polygon points="146.35 398.8 141.98 387.01 133.26 372.65 132.52 361.4 111.85 343.09 147.53 300.26 182.44 342.94 162.21 361.26 161.32 372.65 148.74 398.8 146.35 398.8" fill="#a55200"/>
  <polygon points="146.2 398.62 148.68 398.62 151.93 356.31 164.77 341.91 147.5 320.64 129.52 341.62 143.03 356.31 146.2 398.62" fill="#f99f00"/>
</svg>